<svg xmlns="http://www.w3.org/2000/svg" width="507" height="339" viewBox="0 0 507 339" font-family="monospace" font-size="11">
<rect width="100%%" height="100%%" fill="#f4f4f2"/>
<text x="12" y="20" font-size="14" font-weight="bold">shell_cascade -- SECTION (z across, y up)</text>
<rect x="60.0" y="273.6" width="387.6" height="6.0" fill="#6c7872" fill-opacity="0.80" stroke="#333" stroke-width="0.4"/>
<rect x="60.0" y="90.0" width="387.6" height="3.6" fill="#5c5f66" fill-opacity="0.80" stroke="#333" stroke-width="0.4"/>
<rect x="384.0" y="183.6" width="36.0" height="90.0" fill="#a0b2a9" fill-opacity="0.80" stroke="#333" stroke-width="0.4"/>
<rect x="348.0" y="213.6" width="36.0" height="60.0" fill="#8f9f97" fill-opacity="0.80" stroke="#333" stroke-width="0.4"/>
<rect x="120.0" y="183.6" width="264.0" height="90.0" fill="#a0b2a9" fill-opacity="0.80" stroke="#333" stroke-width="0.4"/>
<rect x="120.0" y="183.6" width="264.0" height="90.0" fill="#a0b2a9" fill-opacity="0.80" stroke="#333" stroke-width="0.4"/>
<rect x="420.0" y="153.6" width="24.0" height="120.0" fill="#b2c6bc" fill-opacity="0.80" stroke="#333" stroke-width="0.4"/>
<rect x="84.0" y="153.6" width="336.0" height="120.0" fill="#b2c6bc" fill-opacity="0.80" stroke="#333" stroke-width="0.4"/>
<rect x="84.0" y="153.6" width="336.0" height="120.0" fill="#b2c6bc" fill-opacity="0.80" stroke="#333" stroke-width="0.4"/>
<rect x="312.0" y="243.6" width="36.0" height="30.0" fill="#7d8b84" fill-opacity="0.80" stroke="#333" stroke-width="0.4"/>
<rect x="156.0" y="213.6" width="192.0" height="60.0" fill="#8f9f97" fill-opacity="0.80" stroke="#333" stroke-width="0.4"/>
<rect x="156.0" y="213.6" width="192.0" height="60.0" fill="#8f9f97" fill-opacity="0.80" stroke="#333" stroke-width="0.4"/>
<rect x="84.0" y="183.6" width="36.0" height="90.0" fill="#a0b2a9" fill-opacity="0.80" stroke="#333" stroke-width="0.4"/>
<rect x="84.0" y="183.6" width="36.0" height="90.0" fill="#a0b2a9" fill-opacity="0.80" stroke="#333" stroke-width="0.4"/>
<rect x="192.0" y="243.6" width="120.0" height="30.0" fill="#7d8b84" fill-opacity="0.80" stroke="#333" stroke-width="0.4"/>
<rect x="192.0" y="243.6" width="120.0" height="30.0" fill="#7d8b84" fill-opacity="0.80" stroke="#333" stroke-width="0.4"/>
<rect x="120.0" y="213.6" width="36.0" height="60.0" fill="#8f9f97" fill-opacity="0.80" stroke="#333" stroke-width="0.4"/>
<rect x="120.0" y="213.6" width="36.0" height="60.0" fill="#8f9f97" fill-opacity="0.80" stroke="#333" stroke-width="0.4"/>
<rect x="60.0" y="153.6" width="24.0" height="120.0" fill="#b2c6bc" fill-opacity="0.80" stroke="#333" stroke-width="0.4"/>
<rect x="60.0" y="153.6" width="24.0" height="120.0" fill="#b2c6bc" fill-opacity="0.80" stroke="#333" stroke-width="0.4"/>
<rect x="156.0" y="243.6" width="36.0" height="30.0" fill="#7d8b84" fill-opacity="0.80" stroke="#333" stroke-width="0.4"/>
<rect x="156.0" y="243.6" width="36.0" height="30.0" fill="#7d8b84" fill-opacity="0.80" stroke="#333" stroke-width="0.4"/>
<rect x="248.4" y="99.6" width="7.2" height="6.0" fill="#d99a33" fill-opacity="0.80" stroke="#333" stroke-width="0.4"/>
<rect x="60.0" y="93.6" width="387.6" height="180.0" fill="#8d9096" fill-opacity="0.45" stroke="#333" stroke-width="0.4"/>
<rect x="60.0" y="93.6" width="387.6" height="180.0" fill="#8d9096" fill-opacity="0.45" stroke="#333" stroke-width="0.4"/>
<rect x="156.0" y="243.6" width="36.0" height="6.0" fill="#7d8b84" fill-opacity="0.80" stroke="#333" stroke-width="0.4"/>
<rect x="120.0" y="213.6" width="36.0" height="36.0" fill="#8f9f97" fill-opacity="0.80" stroke="#333" stroke-width="0.4"/>
<rect x="84.0" y="183.6" width="36.0" height="66.0" fill="#a0b2a9" fill-opacity="0.80" stroke="#333" stroke-width="0.4"/>
<rect x="60.0" y="93.6" width="3.6" height="180.0" fill="#8d9096" fill-opacity="0.45" stroke="#333" stroke-width="0.4"/>
<rect x="60.0" y="93.6" width="3.6" height="180.0" fill="#8d9096" fill-opacity="0.45" stroke="#333" stroke-width="0.4"/>
<rect x="444.0" y="93.6" width="3.6" height="180.0" fill="#8d9096" fill-opacity="0.45" stroke="#333" stroke-width="0.4"/>
<rect x="444.0" y="93.6" width="3.6" height="180.0" fill="#8d9096" fill-opacity="0.45" stroke="#333" stroke-width="0.4"/>
<rect x="60.0" y="153.6" width="24.0" height="96.0" fill="#b2c6bc" fill-opacity="0.80" stroke="#333" stroke-width="0.4"/>
<rect x="192.0" y="270.6" width="6.0" height="7.2" fill="#6c7972" fill-opacity="0.80" stroke="#333" stroke-width="0.4"/>
<rect x="198.0" y="267.6" width="6.0" height="10.2" fill="#6e7b74" fill-opacity="0.80" stroke="#333" stroke-width="0.4"/>
<rect x="204.0" y="264.6" width="6.0" height="13.2" fill="#707d76" fill-opacity="0.80" stroke="#333" stroke-width="0.4"/>
<rect x="210.0" y="261.6" width="6.0" height="16.2" fill="#727f78" fill-opacity="0.80" stroke="#333" stroke-width="0.4"/>
<rect x="216.0" y="258.6" width="6.0" height="19.2" fill="#74817a" fill-opacity="0.80" stroke="#333" stroke-width="0.4"/>
<rect x="222.0" y="255.6" width="6.0" height="22.2" fill="#75837c" fill-opacity="0.80" stroke="#333" stroke-width="0.4"/>
<rect x="228.0" y="252.6" width="6.0" height="25.2" fill="#77857e" fill-opacity="0.80" stroke="#333" stroke-width="0.4"/>
<rect x="234.0" y="249.6" width="6.0" height="28.2" fill="#798780" fill-opacity="0.80" stroke="#333" stroke-width="0.4"/>
<rect x="240.0" y="246.6" width="6.0" height="31.2" fill="#7b8982" fill-opacity="0.80" stroke="#333" stroke-width="0.4"/>
<rect x="246.0" y="243.6" width="6.0" height="34.2" fill="#7d8b84" fill-opacity="0.80" stroke="#333" stroke-width="0.4"/>
<rect x="318.0" y="240.6" width="6.0" height="7.2" fill="#7e8d85" fill-opacity="0.80" stroke="#333" stroke-width="0.4"/>
<rect x="312.0" y="237.6" width="6.0" height="10.2" fill="#808f87" fill-opacity="0.80" stroke="#333" stroke-width="0.4"/>
<rect x="306.0" y="234.6" width="6.0" height="13.2" fill="#829189" fill-opacity="0.80" stroke="#333" stroke-width="0.4"/>
<rect x="300.0" y="231.6" width="6.0" height="16.2" fill="#84938b" fill-opacity="0.80" stroke="#333" stroke-width="0.4"/>
<rect x="294.0" y="228.6" width="6.0" height="19.2" fill="#86958d" fill-opacity="0.80" stroke="#333" stroke-width="0.4"/>
<rect x="288.0" y="225.6" width="6.0" height="22.2" fill="#87978f" fill-opacity="0.80" stroke="#333" stroke-width="0.4"/>
<rect x="282.0" y="222.6" width="6.0" height="25.2" fill="#899991" fill-opacity="0.80" stroke="#333" stroke-width="0.4"/>
<rect x="276.0" y="219.6" width="6.0" height="28.2" fill="#8b9b93" fill-opacity="0.80" stroke="#333" stroke-width="0.4"/>
<rect x="270.0" y="216.6" width="6.0" height="31.2" fill="#8d9d95" fill-opacity="0.80" stroke="#333" stroke-width="0.4"/>
<rect x="264.0" y="213.6" width="6.0" height="34.2" fill="#8f9f97" fill-opacity="0.80" stroke="#333" stroke-width="0.4"/>
<rect x="144.0" y="210.6" width="6.0" height="7.2" fill="#90a198" fill-opacity="0.80" stroke="#333" stroke-width="0.4"/>
<rect x="150.0" y="207.6" width="6.0" height="10.2" fill="#92a39a" fill-opacity="0.80" stroke="#333" stroke-width="0.4"/>
<rect x="156.0" y="204.6" width="6.0" height="13.2" fill="#94a59c" fill-opacity="0.80" stroke="#333" stroke-width="0.4"/>
<rect x="162.0" y="201.6" width="6.0" height="16.2" fill="#96a79e" fill-opacity="0.80" stroke="#333" stroke-width="0.4"/>
<rect x="168.0" y="198.6" width="6.0" height="19.2" fill="#98a9a0" fill-opacity="0.80" stroke="#333" stroke-width="0.4"/>
<rect x="174.0" y="195.6" width="6.0" height="22.2" fill="#99aaa1" fill-opacity="0.80" stroke="#333" stroke-width="0.4"/>
<rect x="180.0" y="192.6" width="6.0" height="25.2" fill="#9aaca3" fill-opacity="0.80" stroke="#333" stroke-width="0.4"/>
<rect x="186.0" y="189.6" width="6.0" height="28.2" fill="#9caea5" fill-opacity="0.80" stroke="#333" stroke-width="0.4"/>
<rect x="192.0" y="186.6" width="6.0" height="31.2" fill="#9eb0a7" fill-opacity="0.80" stroke="#333" stroke-width="0.4"/>
<rect x="198.0" y="183.6" width="6.0" height="34.2" fill="#a0b2a9" fill-opacity="0.80" stroke="#333" stroke-width="0.4"/>
<rect x="390.0" y="180.6" width="6.0" height="7.2" fill="#a2b4ab" fill-opacity="0.80" stroke="#333" stroke-width="0.4"/>
<rect x="384.0" y="177.6" width="6.0" height="10.2" fill="#a3b6ac" fill-opacity="0.80" stroke="#333" stroke-width="0.4"/>
<rect x="378.0" y="174.6" width="6.0" height="13.2" fill="#a5b8ae" fill-opacity="0.80" stroke="#333" stroke-width="0.4"/>
<rect x="372.0" y="171.6" width="6.0" height="16.2" fill="#a7bab0" fill-opacity="0.80" stroke="#333" stroke-width="0.4"/>
<rect x="366.0" y="168.6" width="6.0" height="19.2" fill="#a9bcb2" fill-opacity="0.80" stroke="#333" stroke-width="0.4"/>
<rect x="360.0" y="165.6" width="6.0" height="22.2" fill="#abbeb4" fill-opacity="0.80" stroke="#333" stroke-width="0.4"/>
<rect x="354.0" y="162.6" width="6.0" height="25.2" fill="#acc0b6" fill-opacity="0.80" stroke="#333" stroke-width="0.4"/>
<rect x="348.0" y="159.6" width="6.0" height="28.2" fill="#aec2b8" fill-opacity="0.80" stroke="#333" stroke-width="0.4"/>
<rect x="342.0" y="156.6" width="6.0" height="31.2" fill="#b0c4ba" fill-opacity="0.80" stroke="#333" stroke-width="0.4"/>
<rect x="336.0" y="153.6" width="6.0" height="34.2" fill="#b2c6bc" fill-opacity="0.80" stroke="#333" stroke-width="0.4"/>
<rect x="444.0" y="153.6" width="3.6" height="120.0" fill="#8d9096" fill-opacity="0.45" stroke="#333" stroke-width="0.4"/>
<rect x="444.0" y="93.6" width="3.6" height="12.0" fill="#8d9096" fill-opacity="0.45" stroke="#333" stroke-width="0.4"/>
<rect x="60.0" y="93.6" width="3.6" height="160.8" fill="#8d9096" fill-opacity="0.45" stroke="#333" stroke-width="0.4"/>
<polyline points="216.0,168.6 216.7,168.5 217.6,168.3 218.5,168.1 219.6,167.9 220.7,167.6 221.8,167.4 223.1,167.1 224.4,166.8 225.8,166.5 227.2,166.2 228.7,165.9 230.2,165.5 231.8,165.2 233.3,164.9 234.9,164.6 236.5,164.3 238.1,164.0 239.7,163.8 241.4,163.5 243.0,163.3 244.5,163.1 246.1,162.9 247.6,162.8 249.1,162.7 250.6,162.6 252.0,162.6 253.4,162.6 254.9,162.7 256.4,162.8 257.9,162.9 259.5,163.1 261.0,163.3 262.6,163.5 264.3,163.8 265.9,164.0 267.5,164.3 269.1,164.6 270.7,164.9 272.2,165.2 273.8,165.5 275.3,165.9 276.8,166.2 278.2,166.5 279.6,166.8 280.9,167.1 282.2,167.4 283.3,167.6 284.4,167.9 285.5,168.1 286.4,168.3 287.3,168.5 288.0,168.6" fill="none" stroke="#e0402b" stroke-width="2.5"/>
<polyline points="132.0,198.6 135.1,198.4 138.8,198.2 142.8,198.0 147.4,197.7 152.3,197.3 157.5,197.0 163.1,196.6 169.0,196.2 175.0,195.8 181.3,195.4 187.7,195.0 194.3,194.6 200.9,194.3 207.6,193.9 214.2,193.6 220.8,193.3 227.4,193.1 233.8,192.9 240.1,192.7 246.2,192.6 252.0,192.6 257.8,192.6 263.9,192.7 270.2,192.9 276.6,193.1 283.2,193.3 289.8,193.6 296.4,193.9 303.1,194.3 309.7,194.6 316.3,195.0 322.7,195.4 329.0,195.8 335.0,196.2 340.9,196.6 346.5,197.0 351.7,197.3 356.6,197.7 361.2,198.0 365.2,198.2 368.9,198.4 372.0,198.6" fill="none" stroke="#e0402b" stroke-width="2.5"/>
<polyline points="252.0,273.6 252.0,260.7 252.0,248.6 252.0,237.4 252.0,226.9 252.0,217.2 252.0,208.2 252.0,200.1 252.0,192.8 252.0,186.3 252.0,180.5 252.0,175.6 252.0,171.5 252.0,168.1 252.0,165.5 252.0,163.8 252.0,162.8 252.0,162.6 252.0,163.2 252.0,164.7 252.0,166.9 252.0,169.9 252.0,173.6 252.0,178.2 252.0,183.6" fill="none" stroke="#f0a020" stroke-width="2" stroke-dasharray="5 3"/>
<line x1="60" y1="303.6" x2="447" y2="303.6" stroke="#999" stroke-width="0.5" stroke-dasharray="2 4"/>
<text x="4" y="306.6" font-size="9" fill="#666">-5</text>
<line x1="60" y1="273.6" x2="447" y2="273.6" stroke="#999" stroke-width="0.5" stroke-dasharray="2 4"/>
<text x="4" y="276.6" font-size="9" fill="#666">0</text>
<line x1="60" y1="243.6" x2="447" y2="243.6" stroke="#999" stroke-width="0.5" stroke-dasharray="2 4"/>
<text x="4" y="246.6" font-size="9" fill="#666">5</text>
<line x1="60" y1="213.6" x2="447" y2="213.6" stroke="#999" stroke-width="0.5" stroke-dasharray="2 4"/>
<text x="4" y="216.6" font-size="9" fill="#666">10</text>
<line x1="60" y1="183.6" x2="447" y2="183.6" stroke="#999" stroke-width="0.5" stroke-dasharray="2 4"/>
<text x="4" y="186.6" font-size="9" fill="#666">15</text>
<line x1="60" y1="153.6" x2="447" y2="153.6" stroke="#999" stroke-width="0.5" stroke-dasharray="2 4"/>
<text x="4" y="156.6" font-size="9" fill="#666">20</text>
<line x1="60" y1="123.6" x2="447" y2="123.6" stroke="#999" stroke-width="0.5" stroke-dasharray="2 4"/>
<text x="4" y="126.6" font-size="9" fill="#666">25</text>
<line x1="60" y1="93.6" x2="447" y2="93.6" stroke="#999" stroke-width="0.5" stroke-dasharray="2 4"/>
<text x="4" y="96.6" font-size="9" fill="#666">30</text>
</svg>